<svg width="720" height="560" viewBox="0 0 720 560" fill="none" xmlns="http://www.w3.org/2000/svg" role="img" aria-labelledby="title desc">
  <title id="title">Dinner plate matched from pantry ingredients</title>
  <desc id="desc">A dinner plate with greens, pasta, tomato, and simple ingredient cards.</desc>
  <rect width="720" height="560" rx="36" fill="#F6F9F4"/>
  <circle cx="356" cy="282" r="150" fill="#FFFFFF"/>
  <circle cx="356" cy="282" r="112" fill="#EFF5EB"/>
  <path d="M282 285C318 226 406 226 433 286C392 316 324 325 282 285Z" fill="#EBCAB8"/>
  <path d="M292 300C340 270 389 270 428 302" stroke="#D9864F" stroke-width="18" stroke-linecap="round"/>
  <circle cx="319" cy="252" r="20" fill="#C95735"/>
  <circle cx="391" cy="258" r="22" fill="#D76D3D"/>
  <path d="M268 224C300 196 348 208 358 250C318 258 284 252 268 224Z" fill="#2D7D4D"/>
  <path d="M390 216C432 204 456 236 442 274C411 265 390 246 390 216Z" fill="#5DA66E"/>
  <rect x="68" y="110" width="164" height="76" rx="20" fill="#FFFFFF"/>
  <rect x="90" y="136" width="74" height="12" rx="6" fill="#2D7D4D"/>
  <rect x="90" y="160" width="112" height="10" rx="5" fill="#D9E5D7"/>
  <rect x="488" y="100" width="164" height="76" rx="20" fill="#FFFFFF"/>
  <rect x="510" y="126" width="82" height="12" rx="6" fill="#C95735"/>
  <rect x="510" y="150" width="106" height="10" rx="5" fill="#D9E5D7"/>
  <rect x="496" y="382" width="136" height="72" rx="20" fill="#1E5F3D"/>
  <path d="M528 418H600" stroke="#FFFFFF" stroke-width="10" stroke-linecap="round"/>
  <path d="M544 438H582" stroke="#BEE0C2" stroke-width="8" stroke-linecap="round"/>
</svg>
