<svg width="720" height="560" viewBox="0 0 720 560" fill="none" xmlns="http://www.w3.org/2000/svg" role="img" aria-labelledby="title desc">
  <title id="title">Pantry shelf</title>
  <desc id="desc">A pantry shelf with jars, cans, bread, and produce in tidy groups.</desc>
  <rect width="720" height="560" rx="36" fill="#F6F9F4"/>
  <path d="M110 172H610" stroke="#B8CBB7" stroke-width="18" stroke-linecap="round"/>
  <path d="M110 330H610" stroke="#B8CBB7" stroke-width="18" stroke-linecap="round"/>
  <rect x="142" y="92" width="68" height="80" rx="16" fill="#FFFFFF"/>
  <rect x="154" y="120" width="44" height="18" rx="9" fill="#237849"/>
  <rect x="236" y="78" width="78" height="94" rx="18" fill="#EED5C7"/>
  <rect x="254" y="112" width="42" height="22" rx="11" fill="#C95735"/>
  <rect x="346" y="106" width="56" height="66" rx="16" fill="#F3E29B"/>
  <rect x="432" y="82" width="92" height="90" rx="22" fill="#FFFFFF"/>
  <path d="M454 126H502" stroke="#237849" stroke-width="10" stroke-linecap="round"/>
  <rect x="148" y="238" width="110" height="92" rx="24" fill="#F0C5A9"/>
  <path d="M176 284H230" stroke="#D97949" stroke-width="12" stroke-linecap="round"/>
  <circle cx="314" cy="284" r="34" fill="#D95F3C"/>
  <circle cx="376" cy="284" r="34" fill="#E9D063"/>
  <rect x="444" y="232" width="82" height="98" rx="18" fill="#DDEBDC"/>
  <path d="M466 272H504" stroke="#237849" stroke-width="10" stroke-linecap="round"/>
  <path d="M138 456C216 412 300 412 380 456" stroke="#1E5F3D" stroke-width="20" stroke-linecap="round"/>
  <path d="M414 448C462 410 544 408 590 448" stroke="#D97949" stroke-width="20" stroke-linecap="round"/>
</svg>
